<?xml version="1.0" encoding="UTF-8"?>
<svg id="Capa_1" data-name="Capa 1" xmlns="http://www.w3.org/2000/svg" viewBox="0 0 1080 408.7">
  <defs>
    <style>
      .cls-1 {
        fill: #e48650;
      }

      .cls-2 {
        fill: #0a3323;
      }
    </style>
  </defs>
  <g>
    <path class="cls-1" d="m558.82,349.07h5.89v-59.89c-1.93.29-3.9.5-5.89.63v59.26Z"/>
    <path class="cls-1" d="m573.65,349.07h5.89v-63.69c-1.89.73-3.86,1.38-5.89,1.95v61.74Z"/>
    <path class="cls-1" d="m588.35,281.01v68.07h5.89v-72.1c-2.31,1.78-4.22,3.03-5.32,3.7-.19.11-.38.22-.57.33Z"/>
    <path class="cls-1" d="m645.77,125.39c-15.72,0-30.19,6.34-41.66,16.91,1.27,1.47,2.47,3.02,3.63,4.63,10.46-9.79,23.67-15.66,38.03-15.66,33.83,0,61.35,32.5,61.35,72.44s-27.52,72.44-61.35,72.44c-13.83,0-26.6-5.44-36.88-14.59-1.07,1.55-2.25,3.12-3.55,4.69,11.26,9.9,25.27,15.79,40.43,15.79,37.08,0,67.24-35.14,67.24-78.33s-30.16-78.33-67.24-78.33Z"/>
    <path class="cls-1" d="m644.98,145.9c26.6,0,48.24,25.94,48.24,57.82s-21.64,57.82-48.24,57.82c-11.07,0-21.27-4.5-29.41-12.03-.75,1.73-1.63,3.58-2.66,5.49,8.98,7.8,20.08,12.43,32.08,12.43,29.85,0,54.13-28.58,54.13-63.7s-24.28-63.7-54.13-63.7c-12.46,0-23.94,4.99-33.1,13.35.99,1.73,1.94,3.53,2.82,5.38,8.28-8.03,18.82-12.85,30.28-12.85Z"/>
    <path class="cls-1" d="m620.5,174.46c6.18-7.46,14.66-12.08,24.02-12.08,18.83,0,34.15,18.68,34.15,41.63s-15.32,41.63-34.15,41.63c-9.2,0-17.55-4.48-23.7-11.72-.57,2.26-1.19,4.47-1.9,6.6,6.94,6.87,15.87,11.01,25.6,11.01,22.08,0,40.04-21.32,40.04-47.52s-17.96-47.52-40.04-47.52c-9.93,0-19.03,4.33-26.03,11.46.14.39.28.76.42,1.15.58,1.74,1.1,3.53,1.59,5.36Z"/>
  </g>
  <g>
    <path class="cls-2" d="m248.41,152.09c-4.22-6.83-10.04-12.43-17.34-16.66-8.14-4.71-18.22-7.1-29.95-7.1-8.96,0-17.41,1.68-25.1,4.99-7.71,3.32-14.43,8.31-19.99,14.83-5.55,6.51-9.93,14.62-13.02,24.1-3.09,9.46-4.65,20.61-4.65,33.15s1.56,23.38,4.65,32.83c2.23,6.83,5.24,15.42,13.02,24.1,8.58,9.57,18.31,13.93,23.2,15.74,5.09,1.89,21.35,7.91,38.98.8,22.65-9.14,29.26-32.57,30.02-35.45.06,11.85.12,23.7.18,35.55h39.96V59.63l-39.96,13.92v78.53Zm-66.31,33.52c1.87-5.39,4.39-9.86,7.48-13.26,3.09-3.4,6.74-5.96,10.86-7.6,4.13-1.65,8.54-2.49,13.08-2.49,9.92,0,18.3,3.56,24.91,10.58,6.62,7.04,9.98,17.68,9.98,31.62v1.27c0,14.16-3.36,24.91-9.98,31.94-6.61,7.02-14.99,10.58-24.91,10.58-4.56,0-8.96-.84-13.09-2.49-4.11-1.64-7.77-4.2-10.86-7.6-3.1-3.41-5.62-7.87-7.48-13.27-1.87-5.41-2.82-11.96-2.82-19.48s.95-14.38,2.82-19.8Z"/>
    <path class="cls-2" d="m405.53,214.94c0,4.13-.79,8.21-2.33,12.13-1.55,3.93-3.7,7.44-6.38,10.43-2.68,2.99-5.92,5.39-9.63,7.14-3.7,1.75-7.87,2.63-12.41,2.63-7.6,0-13.73-2.54-18.22-7.55-4.52-5.03-6.81-14.55-6.81-28.29v-80.57h-39.96v93.61c0,10.44,1.35,19.41,4.02,26.65,2.67,7.28,6.42,13.31,11.15,17.92,4.72,4.62,10.33,8,16.67,10.04,9.54,3.07,17.91,3.12,20.1,3.06,6.07-.17,17.16-.49,27.5-7.86,13.29-9.47,16.43-24.26,17.14-28.2-.28,10.96-.56,21.92-.84,32.88h40.27v-148.09h-39.95l-.32,84.07Z"/>
    <polygon class="cls-2" points="734.52 279.02 774.8 279.02 774.8 59.68 734.52 73.67 734.52 279.02"/>
    <path class="cls-2" d="m919.92,160.93c-3.75-7.92-8.85-14.38-15.17-19.19-6.3-4.8-13.56-8.27-21.58-10.31-7.97-2.02-16.33-3.05-24.83-3.05-11.86,0-22.56,1.08-31.81,3.2-9.23,2.12-16.5,4.38-21.61,6.73l-.52.24,5.99,32.97.85-.38c5.67-2.52,12.06-4.75,18.98-6.64,6.9-1.88,14.11-2.84,21.43-2.84,9.97,0,17.97,1.99,23.76,5.92,5.57,3.78,8.76,10.61,9.49,20.3-16.4.45-30.42,2-41.68,4.61-11.49,2.66-20.77,6.28-27.59,10.76-6.86,4.5-11.87,9.95-14.89,16.2-3,6.22-4.52,13.18-4.52,20.68,0,12.89,4.37,23.24,12.97,30.77,8.57,7.51,19.44,11.31,32.29,11.31,3.61,0,9.64.09,16.13-2.26,20.4-7.39,27.08-31.94,28.03-35.64-.12,11.57-.24,23.15-.36,34.72h39.95l.32-88.2c0-11.92-1.9-21.97-5.64-29.89Zm-34.95,60.34c-1.04,9.33-4.55,16.88-10.43,22.45-5.87,5.57-12.61,8.39-20.01,8.39-6.13,0-10.83-1.54-13.96-4.56-3.14-3.03-4.83-6.93-5.02-11.58-.21-7.17,3.35-12.41,10.87-16.01,7.51-3.6,20.48-5.86,38.54-6.73v8.05Z"/>
    <path class="cls-2" d="m597.36,147.98c-5.57-6.41-12.34-11.35-20.15-14.66-7.8-3.31-16.3-4.99-25.26-4.99-11.74,0-21.71,2.39-29.64,7.1-7.11,4.23-12.82,9.82-17.02,16.65v-21.52h-39.96v217.75h39.96c.21-34.19.41-68.39.62-102.58,1.96,5.78,7.18,18.24,19.89,26.89,19.11,13,43.65,9.55,58.53.51,1.13-.69,7.07-4.36,13.02-11.11,7.87-8.93,11.03-17.8,13.18-24.26,3.19-9.57,4.81-20.67,4.81-32.99s-1.62-23.37-4.81-32.84c-3.2-9.48-7.63-17.54-13.18-23.94Zm-25.74,76.89c-1.87,5.4-4.38,9.86-7.48,13.27-3.09,3.4-6.75,5.96-10.86,7.6-4.13,1.65-8.53,2.49-13.08,2.49-9.92,0-18.3-3.56-24.91-10.58-6.62-7.03-9.98-17.77-9.98-31.94v-1.27c0-13.95,3.36-24.59,9.98-31.62,6.61-7.02,14.99-10.58,24.91-10.58,4.55,0,8.95.84,13.08,2.49,4.12,1.65,7.77,4.21,10.86,7.6,3.09,3.4,5.61,7.86,7.48,13.26,1.87,5.41,2.82,12.07,2.82,19.8s-.95,14.07-2.82,19.48Z"/>
  </g>
</svg>