<svg width="1717" height="1381" viewBox="0 0 1717 1381" fill="none" xmlns="http://www.w3.org/2000/svg">
<path opacity="0.1" d="M493.003 1192.79H255.422V883.161H447.558L493.003 930.694V1192.79Z" fill="#292A2E"/>
<path opacity="0.1" d="M447.559 883.161V929.987L493.004 930.694L447.559 883.161Z" fill="#292A2E"/>
<path d="M390.439 1005.54V1020.18C390.439 1023.36 389.175 1026.41 386.924 1028.66C384.674 1030.91 381.622 1032.18 378.439 1032.18H232.439C229.256 1032.18 226.204 1033.44 223.954 1035.69C221.703 1037.94 220.439 1040.99 220.439 1044.18V1239.64C220.439 1242.82 221.703 1245.88 223.954 1248.13C226.204 1250.38 229.256 1251.64 232.439 1251.64H515.986C519.169 1251.64 522.221 1250.38 524.472 1248.13C526.722 1245.88 527.986 1242.82 527.986 1239.64V1005.54C527.986 1002.36 526.722 999.305 524.472 997.055C522.221 994.805 519.169 993.54 515.986 993.54H402.439C399.257 993.54 396.205 994.805 393.954 997.055C391.704 999.305 390.439 1002.36 390.439 1005.54Z" fill="white"/>
<path opacity="0.05" d="M390.439 1005.54V1020.18C390.439 1023.36 389.175 1026.41 386.924 1028.66C384.674 1030.91 381.622 1032.18 378.439 1032.18H232.439C229.256 1032.18 226.204 1033.44 223.954 1035.69C221.703 1037.94 220.439 1040.99 220.439 1044.18V1239.64C220.439 1242.82 221.703 1245.88 223.954 1248.13C226.204 1250.38 229.256 1251.64 232.439 1251.64H515.986C519.169 1251.64 522.221 1250.38 524.472 1248.13C526.722 1245.88 527.986 1242.82 527.986 1239.64V1005.54C527.986 1002.36 526.722 999.305 524.472 997.055C522.221 994.805 519.169 993.54 515.986 993.54H402.439C399.257 993.54 396.205 994.805 393.954 997.055C391.704 999.305 390.439 1002.36 390.439 1005.54Z" fill="#292A2E"/>
<path opacity="0.1" d="M796.432 441.968H558.852V132.336H750.989L796.432 179.869V441.968Z" fill="#292A2E"/>
<path opacity="0.1" d="M750.989 132.336V179.162L796.432 179.869L750.989 132.336Z" fill="#292A2E"/>
<path d="M693.87 254.716V269.352C693.87 270.928 693.559 272.489 692.956 273.944C692.353 275.4 691.469 276.723 690.355 277.838C689.241 278.952 687.918 279.836 686.462 280.439C685.006 281.042 683.445 281.352 681.87 281.352H535.864C532.682 281.353 529.63 282.617 527.38 284.868C525.13 287.118 523.866 290.17 523.866 293.352V488.81C523.866 491.992 525.13 495.044 527.38 497.294C529.63 499.545 532.682 500.809 535.864 500.81H819.417C822.599 500.81 825.651 499.545 827.902 497.295C830.152 495.045 831.417 491.992 831.417 488.81V254.716C831.417 251.533 830.152 248.481 827.902 246.231C825.651 243.98 822.599 242.716 819.417 242.716H705.864C702.683 242.717 699.632 243.982 697.383 246.232C695.133 248.483 693.87 251.534 693.87 254.716Z" fill="white"/>
<path opacity="0.05" d="M693.87 254.716V269.352C693.87 270.928 693.559 272.489 692.956 273.944C692.353 275.4 691.469 276.723 690.355 277.838C689.241 278.952 687.918 279.836 686.462 280.439C685.006 281.042 683.445 281.352 681.87 281.352H535.864C532.682 281.353 529.63 282.617 527.38 284.868C525.13 287.118 523.866 290.17 523.866 293.352V488.81C523.866 491.992 525.13 495.044 527.38 497.294C529.63 499.545 532.682 500.809 535.864 500.81H819.417C822.599 500.81 825.651 499.545 827.902 497.295C830.152 495.045 831.417 491.992 831.417 488.81V254.716C831.417 251.533 830.152 248.481 827.902 246.231C825.651 243.98 822.599 242.716 819.417 242.716H705.864C702.683 242.717 699.632 243.982 697.383 246.232C695.133 248.483 693.87 251.534 693.87 254.716Z" fill="#292A2E"/>
<path opacity="0.1" d="M1679.25 1106.21H1441.67V796.585H1633.8L1679.25 844.116V1106.21Z" fill="#292A2E"/>
<path opacity="0.1" d="M1633.8 796.585V843.411L1679.25 844.116L1633.8 796.585Z" fill="#292A2E"/>
<path d="M1576.68 918.963V933.601C1576.68 935.176 1576.37 936.737 1575.77 938.193C1575.17 939.649 1574.28 940.972 1573.17 942.086C1572.05 943.2 1570.73 944.084 1569.28 944.687C1567.82 945.29 1566.26 945.601 1564.68 945.601H1418.68C1415.5 945.601 1412.45 946.865 1410.2 949.115C1407.95 951.366 1406.68 954.418 1406.68 957.601V1153.06C1406.68 1156.24 1407.95 1159.29 1410.2 1161.54C1412.45 1163.79 1415.5 1165.06 1418.68 1165.06H1702.23C1705.41 1165.06 1708.47 1163.79 1710.72 1161.54C1712.97 1159.29 1714.23 1156.24 1714.23 1153.06V918.963C1714.23 915.78 1712.97 912.728 1710.72 910.478C1708.47 908.228 1705.41 906.964 1702.23 906.964H1588.68C1585.5 906.964 1582.45 908.228 1580.2 910.478C1577.95 912.728 1576.68 915.78 1576.68 918.963Z" fill="white"/>
<path opacity="0.05" d="M1576.68 918.963V933.601C1576.68 935.176 1576.37 936.737 1575.77 938.193C1575.17 939.649 1574.28 940.972 1573.17 942.086C1572.05 943.2 1570.73 944.084 1569.28 944.687C1567.82 945.29 1566.26 945.601 1564.68 945.601H1418.68C1415.5 945.601 1412.45 946.865 1410.2 949.115C1407.95 951.366 1406.68 954.418 1406.68 957.601V1153.06C1406.68 1156.24 1407.95 1159.29 1410.2 1161.54C1412.45 1163.79 1415.5 1165.06 1418.68 1165.06H1702.23C1705.41 1165.06 1708.47 1163.79 1710.72 1161.54C1712.97 1159.29 1714.23 1156.24 1714.23 1153.06V918.963C1714.23 915.78 1712.97 912.728 1710.72 910.478C1708.47 908.228 1705.41 906.964 1702.23 906.964H1588.68C1585.5 906.964 1582.45 908.228 1580.2 910.478C1577.95 912.728 1576.68 915.78 1576.68 918.963Z" fill="#292A2E"/>
<path d="M1634.86 186.55C1641 149.074 1633.69 110.636 1614.22 78.0293C1603.53 59.9483 1589.36 44.1696 1572.53 31.6079C1555.69 19.0462 1536.53 9.95159 1516.16 4.85147C1505.73 2.24113 1495.06 0.681625 1484.33 0.196288V0.0445633H1429.57V7.45838C1390.35 19.8238 1357.47 46.9349 1337.85 83.0758C1324.76 74.469 1309.43 69.9003 1293.76 69.9379C1291.29 69.9379 1288.72 70.0603 1286.28 70.2948H1249.28L1237.19 93.1086L1236.92 93.3672C1236.57 93.7121 1236.21 94.0569 1235.87 94.4017C1223.37 107.266 1215.42 123.868 1213.24 141.673C1149.56 146.235 1098.7 199.759 1097.17 264.144C1096.32 297.458 1108.72 329.75 1131.65 353.928C1142.93 365.897 1156.48 375.501 1171.51 382.18C1186.54 388.859 1202.75 392.481 1219.19 392.834L1612.58 392.884C1669.73 392.884 1716.23 346.056 1716.23 288.494C1716.23 238.644 1682.85 196.954 1634.86 186.55Z" fill="#292A2E"/>
<path d="M1572.03 391.22C1628.26 391.22 1674.02 345.149 1674.02 288.495C1674.22 264.853 1666.19 241.878 1651.3 223.514C1636.41 205.149 1615.59 192.54 1592.42 187.852C1599.03 150.287 1591.87 111.598 1572.26 78.8861C1558.02 54.8239 1537.62 34.9927 1513.17 21.4357C1488.72 7.87874 1461.1 1.08618 1433.14 1.75786C1405.19 2.42954 1377.93 10.5412 1354.15 25.2571C1330.38 39.9729 1310.96 60.7609 1297.9 85.4793C1282.53 74.9201 1263.92 70.1403 1245.36 71.9864C1226.81 73.8324 1209.5 82.1852 1196.52 95.5655C1183.94 108.504 1176.08 125.296 1174.19 143.241C1111.17 147.035 1059.82 199.821 1058.29 264.183C1057.45 297.057 1069.68 328.923 1092.31 352.782C1103.44 364.588 1116.8 374.062 1131.62 380.653C1146.44 387.244 1162.43 390.819 1178.65 391.17L1572.03 391.22Z" fill="white"/>
<path d="M1572.03 392.944L1178.65 392.894C1162.2 392.541 1145.98 388.918 1130.94 382.235C1115.91 375.552 1102.35 365.944 1091.06 353.97C1068.12 329.78 1055.71 297.472 1056.57 264.142C1058.09 199.742 1108.95 146.21 1172.64 141.617C1174.83 123.816 1182.78 107.219 1195.28 94.3551C1208.32 80.9214 1225.63 72.4402 1244.24 70.3642C1262.85 68.2882 1281.6 72.7466 1297.28 82.9758C1310.71 58.2963 1330.45 37.6181 1354.47 23.047C1378.5 8.47596 1405.96 0.532589 1434.05 0.025861C1462.15 -0.480867 1489.87 6.46715 1514.41 20.1623C1538.95 33.8575 1559.41 53.8106 1573.73 77.9896C1593.19 110.592 1600.51 149.023 1594.39 186.497C1642.38 196.924 1675.74 238.626 1675.74 288.488C1675.75 346.089 1629.22 392.944 1572.03 392.944ZM1253.21 73.3189C1242.87 73.2829 1232.62 75.3419 1223.09 79.3717C1213.56 83.4016 1204.94 89.3189 1197.76 96.7672C1185.45 109.433 1177.76 125.867 1175.91 143.431L1175.76 144.885L1174.3 144.973C1111.71 148.738 1061.51 201.123 1060.02 264.231C1059.19 296.651 1071.25 328.077 1093.57 351.608C1104.54 363.246 1117.71 372.586 1132.33 379.084C1146.94 385.581 1162.7 389.106 1178.69 389.454L1572.03 389.504C1627.32 389.504 1672.3 344.195 1672.3 288.504C1672.3 239.742 1639.31 199.05 1592.08 189.55L1590.43 189.219L1590.72 187.564C1597.18 150.405 1590.11 112.158 1570.77 79.7723C1556.69 55.9701 1536.52 36.3524 1512.34 22.9409C1488.16 9.52939 1460.83 2.80919 1433.19 3.47283C1405.54 4.13647 1378.57 12.1599 1355.06 26.7164C1331.54 41.2729 1312.34 61.8358 1299.42 86.2862L1298.51 87.9931L1296.91 86.8931C1284.07 78.0178 1268.82 73.2814 1253.21 73.3189Z" fill="#292A2E"/>
<path d="M1330.85 274.811H1157.62V1378.73H1330.85V274.811Z" fill="#262626"/>
<path d="M1332.57 1380.46H1155.89V273.087H1332.57V1380.46ZM1159.34 1377.01H1329.12V276.535H1159.34V1377.01Z" fill="#292A2E"/>
<path d="M616.513 1378.73H1157.62L1157.62 274.812H616.513L616.513 1378.73Z" fill="white"/>
<path d="M1159.34 1380.46H614.791V273.087H1159.34V1380.46ZM618.239 1377.01H1155.89V276.535H618.239V1377.01Z" fill="#292A2E"/>
<path d="M1117.48 319.211H656.657V422.608H1117.48V319.211Z" fill="#004D19"/>
<g opacity="0.5">
<path d="M1117.48 319.211H656.657V422.608H1117.48V319.211Z" fill="white"/>
</g>
<path d="M1117.48 424.332H656.658C656.201 424.332 655.762 424.15 655.439 423.827C655.116 423.504 654.934 423.065 654.934 422.608V319.211C654.934 318.754 655.116 318.315 655.439 317.992C655.762 317.668 656.201 317.487 656.658 317.487H1117.48C1117.93 317.487 1118.37 317.668 1118.7 317.992C1119.02 318.315 1119.2 318.754 1119.2 319.211V422.608C1119.2 423.065 1119.02 423.504 1118.7 423.827C1118.37 424.15 1117.93 424.332 1117.48 424.332ZM658.382 420.884H1115.75V320.935H658.382V420.884Z" fill="#292A2E"/>
<path d="M708.887 392.122C720.603 392.122 730.1 382.625 730.1 370.909C730.1 359.194 720.603 349.697 708.887 349.697C697.172 349.697 687.675 359.194 687.675 370.909C687.675 382.625 697.172 392.122 708.887 392.122Z" fill="white"/>
<path d="M708.89 393.846C704.354 393.846 699.921 392.501 696.15 389.981C692.379 387.461 689.44 383.88 687.704 379.69C685.968 375.5 685.514 370.889 686.399 366.441C687.284 361.993 689.468 357.907 692.675 354.7C695.882 351.493 699.968 349.309 704.416 348.424C708.864 347.539 713.475 347.993 717.665 349.729C721.855 351.465 725.436 354.404 727.956 358.175C730.476 361.946 731.821 366.379 731.821 370.915C731.812 376.994 729.394 382.822 725.095 387.12C720.797 391.419 714.969 393.837 708.89 393.846ZM708.89 351.432C705.036 351.432 701.269 352.574 698.066 354.715C694.862 356.856 692.364 359.899 690.89 363.459C689.415 367.019 689.029 370.936 689.781 374.715C690.533 378.495 692.388 381.966 695.113 384.691C697.838 387.416 701.309 389.271 705.089 390.023C708.868 390.775 712.785 390.389 716.345 388.914C719.905 387.44 722.948 384.943 725.089 381.739C727.23 378.535 728.372 374.768 728.372 370.915C728.368 365.748 726.314 360.794 722.662 357.14C719.009 353.486 714.056 351.43 708.89 351.423V351.432Z" fill="#292A2E"/>
<path d="M1021.23 370.501H757.471C757.013 370.501 756.575 370.319 756.252 369.996C755.928 369.672 755.747 369.234 755.747 368.777C755.747 368.319 755.928 367.881 756.252 367.557C756.575 367.234 757.013 367.052 757.471 367.052H1021.23C1021.68 367.052 1022.12 367.234 1022.45 367.557C1022.77 367.881 1022.95 368.319 1022.95 368.777C1022.95 369.234 1022.77 369.672 1022.45 369.996C1022.12 370.319 1021.68 370.501 1021.23 370.501Z" fill="#292A2E"/>
<path d="M1060 370.501H1054.53C1054.07 370.501 1053.63 370.319 1053.31 369.996C1052.99 369.672 1052.81 369.234 1052.81 368.777C1052.81 368.319 1052.99 367.881 1053.31 367.557C1053.63 367.234 1054.07 367.052 1054.53 367.052H1060C1060.46 367.052 1060.9 367.234 1061.22 367.557C1061.54 367.881 1061.73 368.319 1061.73 368.777C1061.73 369.234 1061.54 369.672 1061.22 369.996C1060.9 370.319 1060.46 370.501 1060 370.501Z" fill="#292A2E"/>
<path d="M1040.79 370.501H1035.32C1034.86 370.501 1034.42 370.319 1034.1 369.996C1033.77 369.672 1033.59 369.234 1033.59 368.777C1033.59 368.319 1033.77 367.881 1034.1 367.557C1034.42 367.234 1034.86 367.052 1035.32 367.052H1040.79C1041.25 367.052 1041.69 367.234 1042.01 367.557C1042.33 367.881 1042.51 368.319 1042.51 368.777C1042.51 369.234 1042.33 369.672 1042.01 369.996C1041.69 370.319 1041.25 370.501 1040.79 370.501Z" fill="#292A2E"/>
<path d="M1080.53 370.501H1075.05C1074.6 370.501 1074.16 370.319 1073.83 369.996C1073.51 369.672 1073.33 369.234 1073.33 368.777C1073.33 368.319 1073.51 367.881 1073.83 367.557C1074.16 367.234 1074.6 367.052 1075.05 367.052H1080.53C1080.99 367.052 1081.42 367.234 1081.75 367.557C1082.07 367.881 1082.25 368.319 1082.25 368.777C1082.25 369.234 1082.07 369.672 1081.75 369.996C1081.42 370.319 1080.99 370.501 1080.53 370.501Z" fill="#292A2E"/>
<path d="M1117.48 462.751H656.657V566.148H1117.48V462.751Z" fill="#004D19"/>
<g opacity="0.5">
<path d="M1117.48 462.751H656.657V566.148H1117.48V462.751Z" fill="white"/>
</g>
<path d="M1117.48 567.872H656.658C656.201 567.872 655.762 567.69 655.439 567.367C655.116 567.044 654.934 566.605 654.934 566.148V462.742C654.934 462.285 655.116 461.847 655.439 461.523C655.762 461.2 656.201 461.018 656.658 461.018H1117.48C1117.93 461.018 1118.37 461.2 1118.7 461.523C1119.02 461.847 1119.2 462.285 1119.2 462.742V566.139C1119.2 566.366 1119.16 566.591 1119.07 566.802C1118.99 567.012 1118.86 567.203 1118.7 567.364C1118.54 567.525 1118.35 567.653 1118.14 567.74C1117.93 567.827 1117.7 567.872 1117.48 567.872ZM658.382 564.424H1115.75V464.467H658.382V564.424Z" fill="#292A2E"/>
<path d="M708.887 535.662C720.603 535.662 730.1 526.165 730.1 514.449C730.1 502.734 720.603 493.237 708.887 493.237C697.172 493.237 687.675 502.734 687.675 514.449C687.675 526.165 697.172 535.662 708.887 535.662Z" fill="white"/>
<path d="M708.89 537.386C704.354 537.386 699.921 536.041 696.15 533.521C692.379 531.001 689.44 527.42 687.704 523.23C685.968 519.04 685.514 514.429 686.399 509.981C687.284 505.533 689.468 501.447 692.675 498.24C695.882 495.033 699.968 492.849 704.416 491.964C708.864 491.079 713.475 491.533 717.665 493.269C721.855 495.005 725.436 497.944 727.956 501.715C730.476 505.486 731.821 509.919 731.821 514.455C731.812 520.534 729.394 526.362 725.095 530.66C720.797 534.959 714.969 537.377 708.89 537.386ZM708.89 494.972C705.036 494.972 701.269 496.114 698.066 498.255C694.862 500.396 692.364 503.439 690.89 506.999C689.415 510.559 689.029 514.476 689.781 518.256C690.533 522.035 692.388 525.506 695.113 528.231C697.838 530.956 701.309 532.811 705.089 533.563C708.868 534.315 712.785 533.929 716.345 532.454C719.905 530.98 722.948 528.483 725.089 525.279C727.23 522.075 728.372 518.308 728.372 514.455C728.368 509.288 726.314 504.334 722.662 500.68C719.009 497.026 714.056 494.97 708.89 494.963V494.972Z" fill="#292A2E"/>
<path d="M1021.23 514.044H757.471C757.013 514.044 756.575 513.863 756.252 513.539C755.928 513.216 755.747 512.777 755.747 512.32C755.747 511.863 755.928 511.424 756.252 511.101C756.575 510.778 757.013 510.596 757.471 510.596H1021.23C1021.68 510.596 1022.12 510.778 1022.45 511.101C1022.77 511.424 1022.95 511.863 1022.95 512.32C1022.95 512.777 1022.77 513.216 1022.45 513.539C1022.12 513.863 1021.68 514.044 1021.23 514.044Z" fill="#292A2E"/>
<path d="M1060 514.044H1054.53C1054.07 514.044 1053.63 513.863 1053.31 513.539C1052.99 513.216 1052.81 512.777 1052.81 512.32C1052.81 511.863 1052.99 511.424 1053.31 511.101C1053.63 510.778 1054.07 510.596 1054.53 510.596H1060C1060.46 510.596 1060.9 510.778 1061.22 511.101C1061.54 511.424 1061.73 511.863 1061.73 512.32C1061.73 512.777 1061.54 513.216 1061.22 513.539C1060.9 513.863 1060.46 514.044 1060 514.044Z" fill="#292A2E"/>
<path d="M1040.79 514.044H1035.32C1034.86 514.044 1034.42 513.863 1034.1 513.539C1033.77 513.216 1033.59 512.777 1033.59 512.32C1033.59 511.863 1033.77 511.424 1034.1 511.101C1034.42 510.778 1034.86 510.596 1035.32 510.596H1040.79C1041.25 510.596 1041.69 510.778 1042.01 511.101C1042.33 511.424 1042.51 511.863 1042.51 512.32C1042.51 512.777 1042.33 513.216 1042.01 513.539C1041.69 513.863 1041.25 514.044 1040.79 514.044Z" fill="#292A2E"/>
<path d="M1080.53 514.044H1075.05C1074.6 514.044 1074.16 513.863 1073.83 513.539C1073.51 513.216 1073.33 512.777 1073.33 512.32C1073.33 511.863 1073.51 511.424 1073.83 511.101C1074.16 510.778 1074.6 510.596 1075.05 510.596H1080.53C1080.99 510.596 1081.42 510.778 1081.75 511.101C1082.07 511.424 1082.25 511.863 1082.25 512.32C1082.25 512.777 1082.07 513.216 1081.75 513.539C1081.42 513.863 1080.99 514.044 1080.53 514.044Z" fill="#292A2E"/>
<path d="M1117.48 606.291H656.657V709.688H1117.48V606.291Z" fill="#004D19"/>
<g opacity="0.5">
<path d="M1117.48 606.291H656.657V709.688H1117.48V606.291Z" fill="white"/>
</g>
<path d="M1117.48 711.412H656.658C656.201 711.412 655.762 711.23 655.439 710.907C655.116 710.584 654.934 710.145 654.934 709.688V606.291C654.934 605.834 655.116 605.395 655.439 605.072C655.762 604.749 656.201 604.567 656.658 604.567H1117.48C1117.93 604.567 1118.37 604.749 1118.7 605.072C1119.02 605.395 1119.2 605.834 1119.2 606.291V709.688C1119.2 710.145 1119.02 710.584 1118.7 710.907C1118.37 711.23 1117.93 711.412 1117.48 711.412ZM658.382 707.964H1115.75V608.015H658.382V707.964Z" fill="#292A2E"/>
<path d="M708.887 679.202C720.603 679.202 730.1 669.705 730.1 657.989C730.1 646.274 720.603 636.777 708.887 636.777C697.172 636.777 687.675 646.274 687.675 657.989C687.675 669.705 697.172 679.202 708.887 679.202Z" fill="white"/>
<path d="M708.89 680.926C704.354 680.926 699.921 679.581 696.15 677.061C692.379 674.541 689.44 670.96 687.704 666.77C685.968 662.58 685.514 657.969 686.399 653.521C687.284 649.073 689.468 644.987 692.675 641.78C695.882 638.573 699.968 636.389 704.416 635.504C708.864 634.619 713.475 635.073 717.665 636.809C721.855 638.545 725.436 641.484 727.956 645.255C730.476 649.026 731.821 653.459 731.821 657.995C731.812 664.074 729.394 669.902 725.095 674.2C720.797 678.499 714.969 680.918 708.89 680.926ZM708.89 638.503C705.036 638.503 701.269 639.646 698.066 641.787C694.862 643.927 692.364 646.97 690.89 650.53C689.415 654.09 689.029 658.008 689.781 661.787C690.533 665.566 692.388 669.038 695.113 671.762C697.838 674.487 701.309 676.343 705.089 677.094C708.868 677.846 712.785 677.46 716.345 675.986C719.905 674.511 722.948 672.014 725.089 668.81C727.23 665.606 728.372 661.839 728.372 657.986C728.366 652.821 726.311 647.869 722.658 644.217C719.006 640.565 714.055 638.51 708.89 638.503Z" fill="#292A2E"/>
<path d="M1021.23 657.584H757.471C757.013 657.584 756.575 657.403 756.252 657.079C755.928 656.756 755.747 656.317 755.747 655.86C755.747 655.403 755.928 654.964 756.252 654.641C756.575 654.318 757.013 654.136 757.471 654.136H1021.23C1021.68 654.136 1022.12 654.318 1022.45 654.641C1022.77 654.964 1022.95 655.403 1022.95 655.86C1022.95 656.317 1022.77 656.756 1022.45 657.079C1022.12 657.403 1021.68 657.584 1021.23 657.584Z" fill="#292A2E"/>
<path d="M1060 657.584H1054.53C1054.07 657.584 1053.63 657.403 1053.31 657.079C1052.99 656.756 1052.81 656.317 1052.81 655.86C1052.81 655.403 1052.99 654.964 1053.31 654.641C1053.63 654.318 1054.07 654.136 1054.53 654.136H1060C1060.46 654.136 1060.9 654.318 1061.22 654.641C1061.54 654.964 1061.73 655.403 1061.73 655.86C1061.73 656.317 1061.54 656.756 1061.22 657.079C1060.9 657.403 1060.46 657.584 1060 657.584Z" fill="#292A2E"/>
<path d="M1040.79 657.584H1035.32C1034.86 657.584 1034.42 657.403 1034.1 657.079C1033.77 656.756 1033.59 656.317 1033.59 655.86C1033.59 655.403 1033.77 654.964 1034.1 654.641C1034.42 654.318 1034.86 654.136 1035.32 654.136H1040.79C1041.25 654.136 1041.69 654.318 1042.01 654.641C1042.33 654.964 1042.51 655.403 1042.51 655.86C1042.51 656.317 1042.33 656.756 1042.01 657.079C1041.69 657.403 1041.25 657.584 1040.79 657.584Z" fill="#292A2E"/>
<path d="M1080.53 657.584H1075.05C1074.6 657.584 1074.16 657.403 1073.83 657.079C1073.51 656.756 1073.33 656.317 1073.33 655.86C1073.33 655.403 1073.51 654.964 1073.83 654.641C1074.16 654.318 1074.6 654.136 1075.05 654.136H1080.53C1080.99 654.136 1081.42 654.318 1081.75 654.641C1082.07 654.964 1082.25 655.403 1082.25 655.86C1082.25 656.317 1082.07 656.756 1081.75 657.079C1081.42 657.403 1080.99 657.584 1080.53 657.584Z" fill="#292A2E"/>
<path d="M1117.48 854.952H656.658C656.201 854.952 655.762 854.77 655.439 854.447C655.116 854.124 654.934 853.685 654.934 853.228V749.831C654.934 749.374 655.116 748.935 655.439 748.612C655.762 748.289 656.201 748.107 656.658 748.107H1117.48C1117.93 748.107 1118.37 748.289 1118.7 748.612C1119.02 748.935 1119.2 749.374 1119.2 749.831V853.228C1119.2 853.685 1119.02 854.124 1118.7 854.447C1118.37 854.77 1117.93 854.952 1117.48 854.952ZM658.382 851.504H1115.75V751.555H658.382V851.504Z" fill="#292A2E"/>
<path d="M940.695 749.831H462.635V853.228H940.695V749.831Z" fill="#004D19"/>
<g opacity="0.5">
<path d="M940.695 749.831H462.635V853.228H940.695V749.831Z" fill="white"/>
</g>
<path d="M940.692 854.952H462.636C462.178 854.952 461.74 854.77 461.416 854.447C461.093 854.124 460.911 853.685 460.911 853.228V749.831C460.911 749.374 461.093 748.935 461.416 748.612C461.74 748.289 462.178 748.107 462.636 748.107H940.692C941.149 748.107 941.588 748.289 941.911 748.612C942.235 748.935 942.416 749.374 942.416 749.831V853.228C942.416 853.685 942.235 854.124 941.911 854.447C941.588 854.77 941.149 854.952 940.692 854.952ZM464.356 851.504H938.968V751.555H464.36L464.356 851.504Z" fill="#292A2E"/>
<path d="M514.867 822.742C526.582 822.742 536.079 813.245 536.079 801.53C536.079 789.814 526.582 780.317 514.867 780.317C503.152 780.317 493.655 789.814 493.655 801.53C493.655 813.245 503.152 822.742 514.867 822.742Z" fill="white"/>
<path d="M514.867 824.468C510.332 824.468 505.898 823.123 502.127 820.603C498.356 818.083 495.417 814.502 493.681 810.312C491.946 806.122 491.492 801.511 492.376 797.063C493.261 792.615 495.445 788.529 498.652 785.322C501.859 782.115 505.945 779.931 510.393 779.046C514.841 778.161 519.452 778.615 523.642 780.351C527.832 782.086 531.414 785.026 533.933 788.797C536.453 792.568 537.798 797.001 537.798 801.536C537.79 807.616 535.371 813.443 531.073 817.742C526.774 822.041 520.946 824.459 514.867 824.468ZM514.867 782.054C511.014 782.054 507.247 783.196 504.043 785.337C500.839 787.478 498.342 790.521 496.867 794.081C495.393 797.641 495.007 801.558 495.758 805.337C496.51 809.117 498.366 812.588 501.09 815.313C503.815 818.038 507.287 819.893 511.066 820.645C514.845 821.397 518.763 821.011 522.323 819.536C525.883 818.062 528.925 815.564 531.066 812.361C533.207 809.157 534.35 805.39 534.35 801.536C534.346 796.369 532.293 791.415 528.64 787.76C524.987 784.105 520.034 782.048 514.867 782.042V782.054Z" fill="#292A2E"/>
<path d="M844.445 801.124H563.45C562.992 801.124 562.554 800.943 562.231 800.619C561.907 800.296 561.726 799.858 561.726 799.4C561.726 798.943 561.907 798.504 562.231 798.181C562.554 797.858 562.992 797.676 563.45 797.676H844.445C844.903 797.676 845.341 797.858 845.665 798.181C845.988 798.504 846.17 798.943 846.17 799.4C846.17 799.858 845.988 800.296 845.665 800.619C845.341 800.943 844.903 801.124 844.445 801.124Z" fill="#292A2E"/>
<path d="M883.22 801.124H877.746C877.288 801.124 876.85 800.943 876.526 800.619C876.203 800.296 876.021 799.858 876.021 799.4C876.021 798.943 876.203 798.504 876.526 798.181C876.85 797.858 877.288 797.676 877.746 797.676H883.22C883.677 797.676 884.116 797.858 884.439 798.181C884.762 798.504 884.944 798.943 884.944 799.4C884.944 799.858 884.762 800.296 884.439 800.619C884.116 800.943 883.677 801.124 883.22 801.124Z" fill="#292A2E"/>
<path d="M864.009 801.124H858.537C858.079 801.124 857.641 800.943 857.317 800.619C856.994 800.296 856.812 799.858 856.812 799.4C856.812 798.943 856.994 798.504 857.317 798.181C857.641 797.858 858.079 797.676 858.537 797.676H864.009C864.466 797.676 864.905 797.858 865.228 798.181C865.552 798.504 865.733 798.943 865.733 799.4C865.733 799.858 865.552 800.296 865.228 800.619C864.905 800.943 864.466 801.124 864.009 801.124Z" fill="#292A2E"/>
<path d="M903.747 801.124H898.278C897.821 801.124 897.383 800.943 897.059 800.619C896.736 800.296 896.554 799.858 896.554 799.4C896.554 798.943 896.736 798.504 897.059 798.181C897.383 797.858 897.821 797.676 898.278 797.676H903.752C904.21 797.676 904.648 797.858 904.972 798.181C905.295 798.504 905.477 798.943 905.477 799.4C905.477 799.858 905.295 800.296 904.972 800.619C904.648 800.943 904.21 801.124 903.752 801.124H903.747Z" fill="#292A2E"/>
<path d="M1117.48 893.371H656.657V996.768H1117.48V893.371Z" fill="#004D19"/>
<g opacity="0.5">
<path d="M1117.48 893.371H656.657V996.768H1117.48V893.371Z" fill="white"/>
</g>
<path d="M1117.48 998.492H656.658C656.201 998.492 655.762 998.311 655.439 997.987C655.116 997.664 654.934 997.225 654.934 996.768V893.371C654.934 892.914 655.116 892.475 655.439 892.152C655.762 891.829 656.201 891.647 656.658 891.647H1117.48C1117.93 891.647 1118.37 891.829 1118.7 892.152C1119.02 892.475 1119.2 892.914 1119.2 893.371V996.768C1119.2 997.225 1119.02 997.664 1118.7 997.987C1118.37 998.311 1117.93 998.492 1117.48 998.492ZM658.382 995.044H1115.75V895.095H658.382V995.044Z" fill="#292A2E"/>
<path d="M708.887 966.282C720.603 966.282 730.1 956.785 730.1 945.07C730.1 933.354 720.603 923.857 708.887 923.857C697.172 923.857 687.675 933.354 687.675 945.07C687.675 956.785 697.172 966.282 708.887 966.282Z" fill="white"/>
<path d="M708.89 968.004C704.354 968.004 699.921 966.659 696.15 964.14C692.379 961.62 689.44 958.038 687.704 953.848C685.968 949.658 685.514 945.048 686.399 940.599C687.284 936.151 689.468 932.065 692.675 928.858C695.882 925.651 699.968 923.467 704.416 922.583C708.864 921.698 713.475 922.152 717.665 923.887C721.855 925.623 725.436 928.562 727.956 932.333C730.476 936.104 731.821 940.538 731.821 945.073C731.812 951.152 729.394 956.98 725.095 961.279C720.797 965.577 714.969 967.996 708.89 968.004ZM708.89 925.582C705.036 925.582 701.269 926.724 698.066 928.865C694.862 931.006 692.364 934.049 690.89 937.609C689.415 941.169 689.029 945.086 689.781 948.865C690.533 952.645 692.388 956.116 695.113 958.841C697.838 961.566 701.309 963.421 705.089 964.173C708.868 964.925 712.785 964.539 716.345 963.064C719.905 961.59 722.948 959.092 725.089 955.889C727.23 952.685 728.372 948.918 728.372 945.064C728.366 939.899 726.311 934.948 722.658 931.296C719.006 927.643 714.055 925.588 708.89 925.582Z" fill="#292A2E"/>
<path d="M1021.23 944.664H757.471C757.013 944.664 756.575 944.483 756.252 944.159C755.928 943.836 755.747 943.398 755.747 942.94C755.747 942.483 755.928 942.044 756.252 941.721C756.575 941.398 757.013 941.216 757.471 941.216H1021.23C1021.68 941.216 1022.12 941.398 1022.45 941.721C1022.77 942.044 1022.95 942.483 1022.95 942.94C1022.95 943.398 1022.77 943.836 1022.45 944.159C1022.12 944.483 1021.68 944.664 1021.23 944.664Z" fill="#292A2E"/>
<path d="M1060 944.664H1054.53C1054.07 944.664 1053.63 944.483 1053.31 944.159C1052.99 943.836 1052.81 943.398 1052.81 942.94C1052.81 942.483 1052.99 942.044 1053.31 941.721C1053.63 941.398 1054.07 941.216 1054.53 941.216H1060C1060.46 941.216 1060.9 941.398 1061.22 941.721C1061.54 942.044 1061.73 942.483 1061.73 942.94C1061.73 943.398 1061.54 943.836 1061.22 944.159C1060.9 944.483 1060.46 944.664 1060 944.664Z" fill="#292A2E"/>
<path d="M1040.79 944.664H1035.32C1034.86 944.664 1034.42 944.483 1034.1 944.159C1033.77 943.836 1033.59 943.398 1033.59 942.94C1033.59 942.483 1033.77 942.044 1034.1 941.721C1034.42 941.398 1034.86 941.216 1035.32 941.216H1040.79C1041.25 941.216 1041.69 941.398 1042.01 941.721C1042.33 942.044 1042.51 942.483 1042.51 942.94C1042.51 943.398 1042.33 943.836 1042.01 944.159C1041.69 944.483 1041.25 944.664 1040.79 944.664Z" fill="#292A2E"/>
<path d="M1080.53 944.664H1075.05C1074.6 944.664 1074.16 944.483 1073.83 944.159C1073.51 943.836 1073.33 943.398 1073.33 942.94C1073.33 942.483 1073.51 942.044 1073.83 941.721C1074.16 941.398 1074.6 941.216 1075.05 941.216H1080.53C1080.99 941.216 1081.42 941.398 1081.75 941.721C1082.07 942.044 1082.25 942.483 1082.25 942.94C1082.25 943.398 1082.07 943.836 1081.75 944.159C1081.42 944.483 1080.99 944.664 1080.53 944.664Z" fill="#292A2E"/>
<path d="M1117.48 1036.91H656.657V1140.31H1117.48V1036.91Z" fill="#004D19"/>
<g opacity="0.5">
<path d="M1117.48 1036.91H656.657V1140.31H1117.48V1036.91Z" fill="white"/>
</g>
<path d="M1117.48 1142.03H656.658C656.201 1142.03 655.762 1141.85 655.439 1141.53C655.116 1141.2 654.934 1140.77 654.934 1140.31V1036.91C654.934 1036.45 655.116 1036.02 655.439 1035.69C655.762 1035.37 656.201 1035.19 656.658 1035.19H1117.48C1117.93 1035.19 1118.37 1035.37 1118.7 1035.69C1119.02 1036.02 1119.2 1036.45 1119.2 1036.91V1140.31C1119.2 1140.77 1119.02 1141.2 1118.7 1141.53C1118.37 1141.85 1117.93 1142.03 1117.48 1142.03ZM658.382 1138.58H1115.75V1038.64H658.382V1138.58Z" fill="#292A2E"/>
<path d="M708.887 1109.82C720.603 1109.82 730.1 1100.32 730.1 1088.61C730.1 1076.89 720.603 1067.4 708.887 1067.4C697.172 1067.4 687.675 1076.89 687.675 1088.61C687.675 1100.32 697.172 1109.82 708.887 1109.82Z" fill="white"/>
<path d="M708.89 1111.54C704.354 1111.54 699.921 1110.19 696.15 1107.67C692.379 1105.15 689.44 1101.57 687.704 1097.38C685.968 1093.19 685.514 1088.58 686.399 1084.13C687.284 1079.68 689.468 1075.6 692.675 1072.39C695.882 1069.18 699.968 1067 704.416 1066.12C708.864 1065.23 713.475 1065.69 717.665 1067.42C721.855 1069.16 725.436 1072.1 727.956 1075.87C730.476 1079.64 731.821 1084.07 731.821 1088.61C731.812 1094.69 729.394 1100.51 725.095 1104.81C720.797 1109.11 714.969 1111.53 708.89 1111.54ZM708.89 1069.12C705.036 1069.12 701.269 1070.27 698.066 1072.41C694.862 1074.55 692.364 1077.59 690.89 1081.15C689.415 1084.71 689.029 1088.63 689.781 1092.41C690.533 1096.19 692.388 1099.66 695.113 1102.38C697.838 1105.11 701.309 1106.96 705.089 1107.71C708.868 1108.47 712.785 1108.08 716.345 1106.61C719.905 1105.13 722.948 1102.63 725.089 1099.43C727.23 1096.23 728.372 1092.46 728.372 1088.61C728.366 1083.44 726.311 1078.49 722.658 1074.84C719.006 1071.19 714.055 1069.13 708.89 1069.12Z" fill="#292A2E"/>
<path d="M1021.23 1088.2H757.471C757.013 1088.2 756.575 1088.02 756.252 1087.7C755.928 1087.38 755.747 1086.94 755.747 1086.48C755.747 1086.02 755.928 1085.58 756.252 1085.26C756.575 1084.94 757.013 1084.76 757.471 1084.76H1021.23C1021.68 1084.76 1022.12 1084.94 1022.45 1085.26C1022.77 1085.58 1022.95 1086.02 1022.95 1086.48C1022.95 1086.94 1022.77 1087.38 1022.45 1087.7C1022.12 1088.02 1021.68 1088.2 1021.23 1088.2Z" fill="#292A2E"/>
<path d="M1060 1088.2H1054.53C1054.07 1088.2 1053.63 1088.02 1053.31 1087.7C1052.99 1087.38 1052.81 1086.94 1052.81 1086.48C1052.81 1086.02 1052.99 1085.58 1053.31 1085.26C1053.63 1084.94 1054.07 1084.76 1054.53 1084.76H1060C1060.46 1084.76 1060.9 1084.94 1061.22 1085.26C1061.54 1085.58 1061.73 1086.02 1061.73 1086.48C1061.73 1086.94 1061.54 1087.38 1061.22 1087.7C1060.9 1088.02 1060.46 1088.2 1060 1088.2Z" fill="#292A2E"/>
<path d="M1040.79 1088.2H1035.32C1034.86 1088.2 1034.42 1088.02 1034.1 1087.7C1033.77 1087.38 1033.59 1086.94 1033.59 1086.48C1033.59 1086.02 1033.77 1085.58 1034.1 1085.26C1034.42 1084.94 1034.86 1084.76 1035.32 1084.76H1040.79C1041.25 1084.76 1041.69 1084.94 1042.01 1085.26C1042.33 1085.58 1042.51 1086.02 1042.51 1086.48C1042.51 1086.94 1042.33 1087.38 1042.01 1087.7C1041.69 1088.02 1041.25 1088.2 1040.79 1088.2Z" fill="#292A2E"/>
<path d="M1080.53 1088.2H1075.05C1074.6 1088.2 1074.16 1088.02 1073.83 1087.7C1073.51 1087.38 1073.33 1086.94 1073.33 1086.48C1073.33 1086.02 1073.51 1085.58 1073.83 1085.26C1074.16 1084.94 1074.6 1084.76 1075.05 1084.76H1080.53C1080.99 1084.76 1081.42 1084.94 1081.75 1085.26C1082.07 1085.58 1082.25 1086.02 1082.25 1086.48C1082.25 1086.94 1082.07 1087.38 1081.75 1087.7C1081.42 1088.02 1080.99 1088.2 1080.53 1088.2Z" fill="#292A2E"/>
<path d="M1117.48 1180.45H656.657V1283.85H1117.48V1180.45Z" fill="#004D19"/>
<g opacity="0.5">
<path d="M1117.48 1180.45H656.657V1283.85H1117.48V1180.45Z" fill="white"/>
</g>
<path d="M1117.48 1285.57H656.658C656.201 1285.57 655.762 1285.39 655.439 1285.07C655.116 1284.74 654.934 1284.31 654.934 1283.85V1180.45C654.934 1179.99 655.116 1179.56 655.439 1179.23C655.762 1178.91 656.201 1178.73 656.658 1178.73H1117.48C1117.93 1178.73 1118.37 1178.91 1118.7 1179.23C1119.02 1179.56 1119.2 1179.99 1119.2 1180.45V1283.85C1119.2 1284.31 1119.02 1284.74 1118.7 1285.07C1118.37 1285.39 1117.93 1285.57 1117.48 1285.57ZM658.382 1282.12H1115.75V1182.18H658.382V1282.12Z" fill="#292A2E"/>
<path d="M708.887 1253.36C720.603 1253.36 730.1 1243.86 730.1 1232.15C730.1 1220.43 720.603 1210.94 708.887 1210.94C697.172 1210.94 687.675 1220.43 687.675 1232.15C687.675 1243.86 697.172 1253.36 708.887 1253.36Z" fill="white"/>
<path d="M708.89 1255.08C704.354 1255.08 699.921 1253.74 696.15 1251.22C692.379 1248.7 689.44 1245.12 687.704 1240.93C685.968 1236.74 685.514 1232.13 686.399 1227.68C687.284 1223.23 689.468 1219.15 692.675 1215.94C695.882 1212.73 699.968 1210.55 704.416 1209.66C708.864 1208.78 713.475 1209.23 717.665 1210.97C721.855 1212.7 725.436 1215.64 727.956 1219.41C730.476 1223.18 731.821 1227.62 731.821 1232.15C731.812 1238.23 729.394 1244.06 725.095 1248.36C720.797 1252.66 714.969 1255.08 708.89 1255.08ZM708.89 1212.66C705.036 1212.66 701.269 1213.8 698.066 1215.95C694.862 1218.09 692.364 1221.13 690.89 1224.69C689.415 1228.25 689.029 1232.17 689.781 1235.95C690.533 1239.72 692.388 1243.2 695.113 1245.92C697.838 1248.65 701.309 1250.5 705.089 1251.25C708.868 1252 712.785 1251.62 716.345 1250.14C719.905 1248.67 722.948 1246.17 725.089 1242.97C727.23 1239.76 728.372 1236 728.372 1232.14C728.366 1226.98 726.311 1222.03 722.658 1218.38C719.006 1214.72 714.055 1212.67 708.89 1212.66Z" fill="#292A2E"/>
<path d="M1021.23 1231.74H757.471C757.013 1231.74 756.575 1231.56 756.252 1231.24C755.928 1230.92 755.747 1230.48 755.747 1230.02C755.747 1229.56 755.928 1229.12 756.252 1228.8C756.575 1228.48 757.013 1228.3 757.471 1228.3H1021.23C1021.68 1228.3 1022.12 1228.48 1022.45 1228.8C1022.77 1229.12 1022.95 1229.56 1022.95 1230.02C1022.95 1230.48 1022.77 1230.92 1022.45 1231.24C1022.12 1231.56 1021.68 1231.74 1021.23 1231.74Z" fill="#292A2E"/>
<path d="M1060 1231.74H1054.53C1054.07 1231.74 1053.63 1231.56 1053.31 1231.24C1052.99 1230.92 1052.81 1230.48 1052.81 1230.02C1052.81 1229.56 1052.99 1229.12 1053.31 1228.8C1053.63 1228.48 1054.07 1228.3 1054.53 1228.3H1060C1060.46 1228.3 1060.9 1228.48 1061.22 1228.8C1061.54 1229.12 1061.73 1229.56 1061.73 1230.02C1061.73 1230.48 1061.54 1230.92 1061.22 1231.24C1060.9 1231.56 1060.46 1231.74 1060 1231.74Z" fill="#292A2E"/>
<path d="M1040.79 1231.74H1035.32C1034.86 1231.74 1034.42 1231.56 1034.1 1231.24C1033.77 1230.92 1033.59 1230.48 1033.59 1230.02C1033.59 1229.56 1033.77 1229.12 1034.1 1228.8C1034.42 1228.48 1034.86 1228.3 1035.32 1228.3H1040.79C1041.25 1228.3 1041.69 1228.48 1042.01 1228.8C1042.33 1229.12 1042.51 1229.56 1042.51 1230.02C1042.51 1230.48 1042.33 1230.92 1042.01 1231.24C1041.69 1231.56 1041.25 1231.74 1040.79 1231.74Z" fill="#292A2E"/>
<path d="M1080.53 1231.74H1075.05C1074.6 1231.74 1074.16 1231.56 1073.83 1231.24C1073.51 1230.92 1073.33 1230.48 1073.33 1230.02C1073.33 1229.56 1073.51 1229.12 1073.83 1228.8C1074.16 1228.48 1074.6 1228.3 1075.05 1228.3H1080.53C1080.99 1228.3 1081.42 1228.48 1081.75 1228.8C1082.07 1229.12 1082.25 1229.56 1082.25 1230.02C1082.25 1230.48 1082.07 1230.92 1081.75 1231.24C1081.42 1231.56 1080.99 1231.74 1080.53 1231.74Z" fill="#292A2E"/>
<path d="M133.344 1288.13C133.344 1288.13 114.059 1316.63 135.099 1340.33C156.139 1364.03 133.466 1377 133.466 1377L47.9763 1291.52L90.6902 1248.8L133.344 1288.13Z" fill="#004D19"/>
<path d="M137.888 701.852C137.888 701.852 138.268 691.695 138.188 714.736C138.054 752.998 141.695 854.114 139.137 984.435C137.092 1088.61 64.5745 1267.37 64.5745 1267.37L129.98 1314.31C129.98 1314.31 228.365 1154.74 243.978 996.763C251.972 915.901 268.322 698.355 268.322 698.355L137.888 701.852Z" fill="#262626"/>
<path d="M339.714 1318.24C339.714 1318.24 346.233 1352.03 377.871 1353.91C409.509 1355.79 402.647 1381 402.647 1381H281.746V1320.6L339.714 1318.24Z" fill="#004D19"/>
<path d="M355.081 708.526C355.081 708.526 365.005 1002.27 363.974 1016.63L354.641 1337.59L276.51 1339.03L263.91 1005.02C263.91 1005.02 255.653 912.887 233.393 827.333C222.001 783.422 215.145 738.459 212.932 693.148L355.081 708.526Z" fill="#262626"/>
<path d="M252.006 916.788L258.522 817.155C258.522 817.155 265.213 858.576 265.213 894.278C265.213 911.73 261.618 980.82 261.618 980.82L252.006 916.788Z" fill="#0A0A0A"/>
<path d="M137.025 701.843L136.766 701.857C136.766 701.857 136.954 696.846 137.025 701.843Z" fill="#333333"/>
<path d="M137.353 701.843L137.092 701.857C137.092 701.857 137.28 696.847 137.353 701.843Z" fill="#333333"/>
<path d="M188.513 330.766C188.513 330.766 182.218 364.309 173.144 375.666C147.022 408.365 135.928 447.335 155.377 470.711C174.825 494.087 314.672 511.101 330.976 464.627C344.701 425.501 326.074 418.891 325.379 385.178C325.065 369.923 323.027 337.764 323.027 337.764" fill="#0A0A0A"/>
<path d="M301.962 446.903C301.719 446.87 299.02 491.646 247.005 487.742C210.992 485.044 198.153 446.839 197.329 446.839C201.21 446.013 207.749 444.813 209.473 443.892C215.144 440.846 222.16 437.685 223.987 426.665C225.041 420.318 223.253 387.847 223.803 381.427L279.081 393.763C278.308 407.327 272.901 438.763 291.85 444.332C295.001 445.251 298.398 446.098 301.962 446.903Z" fill="#E98862"/>
<path d="M279.855 431.482C278.989 428.691 278.432 425.815 278.193 422.903C277.584 416.258 277.705 409.567 278.553 402.949C267.318 401.433 256.734 396.796 248.003 389.565C246.977 393.358 241.332 409.918 242.894 413.53C245.849 420.328 259.732 431.482 279.855 431.482Z" fill="#0C0C0C"/>
<path d="M270.045 420.663C248.148 420.17 221.191 408.168 218.838 378.658L216.713 352.03C214.358 322.52 227.95 297.359 255.734 295.144C283.521 292.926 306.198 315.192 308.552 344.702L309.493 356.49C310.395 367.813 309.1 421.544 270.045 420.663Z" fill="#E98862"/>
<path d="M300.308 362.802C302.204 362.802 303.741 361.266 303.741 359.37C303.741 357.474 302.204 355.937 300.308 355.937C298.412 355.937 296.875 357.474 296.875 359.37C296.875 361.266 298.412 362.802 300.308 362.802Z" fill="#0C0C0C"/>
<path d="M265.603 363.018C267.499 363.018 269.036 361.481 269.036 359.585C269.036 357.689 267.499 356.152 265.603 356.152C263.707 356.152 262.17 357.689 262.17 359.585C262.17 361.481 263.707 363.018 265.603 363.018Z" fill="#0C0C0C"/>
<path d="M282.981 381.494H283.036C284.162 381.395 285.282 381.235 286.391 381.015C288.048 380.67 290.236 380.046 290.119 378.57C289.986 376.889 283.933 359.113 283.241 357.092C283.213 357.003 283.166 356.921 283.106 356.85C283.045 356.78 282.97 356.722 282.887 356.68C282.803 356.638 282.713 356.613 282.619 356.607C282.526 356.601 282.433 356.613 282.344 356.643C282.256 356.673 282.175 356.721 282.105 356.783C282.035 356.845 281.978 356.92 281.938 357.004C281.898 357.088 281.874 357.18 281.87 357.273C281.865 357.366 281.879 357.459 281.91 357.547C284.497 365.116 288.634 377.547 288.717 378.682C288.481 379.177 285.717 379.866 282.924 380.09C282.741 380.103 282.571 380.186 282.449 380.323C282.327 380.459 282.262 380.638 282.27 380.821C282.277 381.004 282.356 381.176 282.488 381.302C282.621 381.429 282.798 381.496 282.981 381.494Z" fill="#0C0C0C"/>
<path d="M277.603 393.546C282.106 393.447 286.524 392.293 290.499 390.175C290.582 390.133 290.655 390.076 290.715 390.005C290.776 389.935 290.821 389.854 290.85 389.766C290.879 389.678 290.89 389.586 290.883 389.494C290.876 389.402 290.851 389.312 290.809 389.229C290.767 389.147 290.71 389.073 290.639 389.013C290.569 388.953 290.488 388.907 290.4 388.879C290.223 388.821 290.03 388.835 289.863 388.92C281.284 393.278 273.227 393.265 266.565 388.88C266.431 388.786 266.292 388.7 266.148 388.623C265.981 388.55 265.793 388.545 265.623 388.608C265.452 388.67 265.313 388.796 265.233 388.96C265.154 389.123 265.141 389.311 265.196 389.483C265.252 389.656 265.372 389.801 265.532 389.887C265.584 389.916 265.672 389.975 265.792 390.059C269.295 392.371 273.407 393.584 277.603 393.546Z" fill="#0C0C0C"/>
<path d="M193.948 358.777L218.839 356.933C238.132 351.447 247.174 320.047 247.174 320.047C247.174 320.047 267.269 344.358 323.027 337.775C323.027 337.775 320.3 260.706 237.527 274.107C210.839 278.418 189.424 302.544 187.97 337.706C186.956 362.344 193.948 358.777 193.948 358.777Z" fill="#0A0A0A"/>
<path d="M221.279 387.509C212.83 388.184 205.27 379.697 204.596 371.252C203.922 362.808 210.396 357.606 218.839 356.932L223.642 362.242L228.539 386.93L221.279 387.509Z" fill="#E98862"/>
<path d="M289.719 343.797C292.301 342.498 295.185 341.919 298.069 342.12C299.489 342.208 300.887 342.51 302.217 343.016C303.535 343.51 304.786 344.168 305.939 344.975C306.105 345.078 306.223 345.242 306.267 345.432C306.311 345.622 306.279 345.821 306.176 345.987C306.073 346.152 305.908 346.27 305.719 346.315C305.529 346.359 305.329 346.326 305.164 346.223L305.114 346.194C304.041 345.514 302.886 344.971 301.677 344.58C300.483 344.187 299.236 343.976 297.979 343.956C295.488 343.897 293.025 344.498 290.841 345.697L290.77 345.739C290.517 345.871 290.223 345.9 289.948 345.819C289.674 345.739 289.442 345.555 289.3 345.307C289.158 345.059 289.118 344.766 289.188 344.489C289.257 344.212 289.432 343.973 289.674 343.821L289.719 343.797Z" fill="#0C0C0C"/>
<path d="M267.398 346.575C265.055 345.727 262.529 345.514 260.076 345.956C258.837 346.17 257.638 346.57 256.519 347.142C255.386 347.716 254.329 348.43 253.372 349.266L253.329 349.302C253.182 349.43 252.99 349.493 252.796 349.479C252.601 349.465 252.42 349.374 252.293 349.227C252.166 349.079 252.102 348.887 252.116 348.693C252.131 348.498 252.222 348.318 252.369 348.19C253.385 347.215 254.519 346.372 255.745 345.68C256.983 344.976 258.32 344.461 259.71 344.154C262.528 343.513 265.466 343.641 268.217 344.527C268.36 344.568 268.492 344.637 268.607 344.731C268.722 344.824 268.817 344.94 268.887 345.072C268.956 345.203 268.998 345.346 269.01 345.494C269.023 345.642 269.005 345.791 268.959 345.932C268.912 346.072 268.838 346.202 268.74 346.314C268.643 346.425 268.523 346.516 268.39 346.581C268.256 346.645 268.111 346.682 267.963 346.689C267.815 346.696 267.667 346.673 267.528 346.621L267.483 346.606L267.398 346.575Z" fill="#0C0C0C"/>
<path d="M277.84 400.213C278.654 400.208 279.467 400.134 280.269 399.992C280.437 399.946 280.582 399.838 280.676 399.69C280.769 399.542 280.804 399.365 280.774 399.193C280.744 399.021 280.651 398.866 280.513 398.759C280.375 398.652 280.202 398.6 280.028 398.613C278.771 398.932 277.462 398.98 276.186 398.752C274.91 398.525 273.698 398.028 272.629 397.294C272.56 397.233 272.479 397.186 272.391 397.157C272.304 397.127 272.211 397.115 272.119 397.121C271.933 397.133 271.759 397.219 271.636 397.359C271.513 397.5 271.451 397.683 271.463 397.87C271.475 398.056 271.561 398.23 271.702 398.353C273.471 399.664 275.64 400.321 277.84 400.213Z" fill="#0C0C0C"/>
<path d="M218.926 356.628L218.753 355.927C250.877 348.168 246.588 316.994 246.541 316.68L247.253 316.573C247.305 316.892 251.702 348.704 218.926 356.628Z" fill="#0C0C0C"/>
<path opacity="0.1" d="M260.806 381.256C264.418 381.256 267.346 379.108 267.346 376.459C267.346 373.81 264.418 371.663 260.806 371.663C257.195 371.663 254.267 373.81 254.267 376.459C254.267 379.108 257.195 381.256 260.806 381.256Z" fill="#0C0C0C"/>
<path opacity="0.1" d="M299.681 375.313C299.681 377.959 302.612 380.106 306.232 380.111C306.856 380.111 307.479 380.046 308.089 379.918C308.627 376.827 308.994 373.837 309.234 371.056C308.275 370.691 307.255 370.508 306.229 370.516C302.612 370.511 299.684 372.658 299.681 375.313Z" fill="#0C0C0C"/>
<path d="M366.589 545.479C364.951 564.727 356.982 684.815 355.406 708.526H138.304C137.076 687.146 131.569 593.638 126.924 551.82C122.485 511.918 113.774 491.941 120.159 480.144C130.592 460.863 159.1 449.722 178.538 447.091C190.409 445.484 208.262 444.332 208.262 444.332C208.262 444.332 209.773 474.911 245.818 476.613C294.885 478.929 291.609 444.332 291.852 444.332C299.801 444.332 345.211 449.363 356.32 455.948C386.589 473.875 370.068 504.687 366.589 545.479Z" fill="#004D19"/>
<path d="M531.607 580.674C531.857 579.985 532.244 579.355 532.746 578.821C533.248 578.287 533.853 577.861 534.525 577.569C535.196 577.276 535.921 577.124 536.653 577.121C537.386 577.117 538.112 577.263 538.786 577.55C540.072 578.149 541.083 579.215 541.613 580.532C542.144 581.848 542.154 583.317 541.643 584.641L539.158 591.489L554.767 575.574C556.707 573.538 560.389 572.279 562.526 574.605C564.381 576.372 568.669 576.915 569.365 580.227C569.389 580.244 569.346 610.545 567.546 612.432C559.912 620.45 541.458 622 531.167 617.929L514.96 611.522L531.607 580.674Z" fill="#E98862"/>
<g opacity="0.1">
<path d="M531.607 580.674C531.857 579.985 532.244 579.355 532.746 578.821C533.248 578.287 533.853 577.861 534.525 577.569C535.196 577.276 535.921 577.124 536.653 577.121C537.386 577.117 538.112 577.263 538.786 577.55C540.072 578.149 541.083 579.215 541.613 580.532C542.144 581.848 542.154 583.317 541.643 584.641L539.158 591.489L554.767 575.574C556.707 573.538 560.389 572.279 562.526 574.605C564.381 576.372 568.669 576.915 569.365 580.227C569.389 580.244 569.346 610.545 567.546 612.432C559.912 620.45 541.458 622 531.167 617.929L514.96 611.522L531.607 580.674Z" fill="#0C0C0C"/>
</g>
<path d="M442.56 511.018L442.775 521.863C442.819 522.99 442.6 524.111 442.136 525.139C441.672 526.166 440.975 527.072 440.101 527.783C439.227 528.495 438.199 528.994 437.098 529.24C435.998 529.486 434.856 529.473 433.761 529.201L321.93 510.329C320.836 510.057 319.693 510.044 318.593 510.29C317.492 510.536 316.464 511.035 315.59 511.747C314.716 512.459 314.019 513.365 313.555 514.392C313.091 515.42 312.872 516.542 312.916 517.668L302.587 660.846C302.766 663.38 303.785 665.783 305.481 667.673C307.178 669.564 309.456 670.836 311.956 671.288L529.37 709.564C530.465 709.835 531.607 709.848 532.708 709.602C533.808 709.356 534.836 708.857 535.711 708.145C536.585 707.433 537.282 706.528 537.747 705.5C538.211 704.472 538.43 703.351 538.386 702.224L542.85 528.798C542.671 526.264 541.652 523.861 539.956 521.971C538.259 520.08 535.981 518.808 533.481 518.356L451.57 503.682C450.476 503.411 449.334 503.399 448.235 503.645C447.135 503.891 446.108 504.39 445.234 505.101C444.36 505.813 443.663 506.718 443.199 507.745C442.735 508.772 442.516 509.892 442.56 511.018Z" fill="#262626"/>
<path d="M530.936 711.41C530.317 711.41 529.7 711.357 529.09 711.253L311.656 672.977C308.769 672.444 306.141 670.964 304.187 668.773C302.233 666.581 301.064 663.802 300.863 660.872L311.198 517.539C311.154 516.238 311.402 514.944 311.923 513.75C312.444 512.557 313.224 511.495 314.208 510.643C315.312 509.737 316.602 509.086 317.986 508.735C319.37 508.385 320.815 508.344 322.217 508.615L434.05 527.484C434.951 527.678 435.885 527.667 436.781 527.453C437.678 527.238 438.516 526.826 439.232 526.246C439.843 525.701 440.324 525.026 440.639 524.27C440.953 523.515 441.094 522.698 441.051 521.88L440.836 511.036C440.78 509.71 441.022 508.389 441.544 507.17C442.065 505.951 442.854 504.864 443.851 503.989C444.956 503.084 446.246 502.433 447.631 502.083C449.015 501.732 450.46 501.691 451.862 501.961L533.79 516.641C536.689 517.147 539.332 518.619 541.29 520.816C543.248 523.013 544.407 525.808 544.578 528.746L540.112 702.248C540.16 703.561 539.915 704.867 539.394 706.072C538.873 707.278 538.089 708.352 537.1 709.215C535.376 710.664 533.188 711.444 530.936 711.41ZM320.332 511.911C318.92 511.878 317.545 512.358 316.46 513.261C315.849 513.807 315.369 514.483 315.055 515.239C314.74 515.994 314.598 516.811 314.641 517.629L304.311 660.964C304.503 663.072 305.383 665.059 306.817 666.617C308.25 668.176 310.157 669.218 312.242 669.584L529.674 707.86C530.574 708.051 531.506 708.039 532.4 707.824C533.295 707.609 534.131 707.198 534.846 706.619C535.456 706.073 535.936 705.398 536.251 704.643C536.565 703.887 536.706 703.071 536.664 702.253L541.129 528.749C540.953 526.627 540.08 524.623 538.645 523.05C537.21 521.477 535.295 520.423 533.198 520.053L451.27 505.374C450.37 505.184 449.439 505.197 448.544 505.412C447.65 505.627 446.814 506.038 446.098 506.615C445.488 507.161 445.007 507.836 444.692 508.592C444.377 509.348 444.235 510.164 444.277 510.982L444.493 521.825C444.549 523.15 444.308 524.471 443.786 525.691C443.265 526.91 442.476 527.997 441.479 528.872C440.376 529.778 439.086 530.43 437.701 530.781C436.317 531.131 434.872 531.172 433.47 530.899L321.637 512.029C321.206 511.953 320.77 511.914 320.332 511.911Z" fill="#292A2E"/>
<path d="M509.382 673.488L332.145 650.922L361.556 419.935L504.891 438.185L534.277 477.961L509.382 673.488Z" fill="white"/>
<path d="M509.382 675.214C509.31 675.213 509.237 675.209 509.165 675.2L331.923 652.633C331.469 652.575 331.057 652.339 330.777 651.978C330.497 651.616 330.372 651.159 330.43 650.705L359.839 419.716C359.898 419.263 360.133 418.851 360.494 418.57C360.858 418.294 361.315 418.17 361.768 418.225L505.103 436.477C505.334 436.507 505.557 436.584 505.759 436.702C505.96 436.821 506.135 436.979 506.274 437.166L535.66 476.942C535.923 477.3 536.039 477.744 535.984 478.184L511.087 673.712C511.035 674.128 510.832 674.511 510.517 674.788C510.202 675.066 509.797 675.219 509.377 675.219L509.382 675.214ZM334.073 649.431L507.891 671.562L532.479 478.432L503.943 439.811L363.047 421.868L334.073 649.431Z" fill="#292A2E"/>
<path d="M504.89 438.185L500.442 473.118L534.277 477.961L504.89 438.185Z" fill="white"/>
<path d="M534.277 479.686C534.196 479.686 534.114 479.68 534.034 479.668L500.199 474.825C499.751 474.761 499.346 474.524 499.071 474.164C498.797 473.804 498.675 473.35 498.732 472.901L503.18 437.968C503.222 437.625 503.367 437.302 503.595 437.042C503.822 436.782 504.123 436.597 504.458 436.51C504.792 436.423 505.145 436.438 505.471 436.555C505.797 436.671 506.08 436.882 506.284 437.161L535.67 476.937C535.86 477.194 535.974 477.498 536.001 477.816C536.028 478.134 535.966 478.454 535.822 478.739C535.678 479.024 535.458 479.263 535.186 479.43C534.914 479.597 534.601 479.686 534.282 479.686H534.277ZM502.368 471.651L530.442 475.668L506.058 442.668L502.368 471.651Z" fill="#292A2E"/>
<path d="M502.362 675.033L334.979 612.545L416.418 394.399L551.784 444.934L571.3 490.375L502.362 675.033Z" fill="#004D19"/>
<g opacity="0.43">
<path d="M502.362 675.033L334.979 612.545L416.418 394.399L551.784 444.934L571.3 490.375L502.362 675.033Z" fill="white"/>
</g>
<path d="M502.364 676.757C502.158 676.757 501.953 676.72 501.76 676.648L334.375 614.16C333.947 614 333.6 613.677 333.41 613.261C333.221 612.845 333.204 612.371 333.363 611.943L414.803 393.796C414.882 393.583 415.003 393.389 415.157 393.223C415.311 393.058 415.497 392.924 415.703 392.83C415.909 392.736 416.132 392.683 416.358 392.675C416.584 392.668 416.81 392.704 417.022 392.784L552.388 443.32C552.606 443.401 552.806 443.526 552.975 443.686C553.144 443.847 553.279 444.04 553.371 444.254L572.885 489.694C573.06 490.102 573.071 490.561 572.916 490.977L503.977 675.633C503.855 675.962 503.635 676.246 503.347 676.447C503.058 676.648 502.715 676.756 502.364 676.757ZM337.191 611.532L501.346 672.815L569.438 490.42L550.488 446.291L417.426 396.616L337.191 611.532Z" fill="#292A2E"/>
<path d="M551.784 444.934L539.469 477.925L571.3 490.375L551.784 444.934Z" fill="white"/>
<path d="M571.3 492.099C571.085 492.099 570.872 492.059 570.673 491.98L538.841 479.532C538.42 479.367 538.08 479.043 537.895 478.629C537.711 478.215 537.696 477.746 537.855 477.322L550.171 444.332C550.291 444.009 550.505 443.73 550.785 443.53C551.065 443.33 551.399 443.218 551.743 443.21H551.786C552.124 443.21 552.454 443.309 552.735 443.494C553.017 443.68 553.238 443.944 553.371 444.254L572.885 489.694C572.999 489.957 573.047 490.244 573.022 490.53C572.998 490.815 572.903 491.09 572.746 491.33C572.588 491.57 572.374 491.766 572.121 491.902C571.869 492.038 571.587 492.109 571.3 492.108V492.099ZM541.678 476.939L568.09 487.268L551.898 449.565L541.678 476.939Z" fill="#292A2E"/>
<path d="M539.371 509.437C539.165 509.437 538.961 509.401 538.769 509.329L414.896 463.048C414.478 462.881 414.141 462.556 413.958 462.144C413.776 461.732 413.762 461.265 413.92 460.842C414.077 460.42 414.394 460.076 414.803 459.885C415.211 459.694 415.678 459.67 416.103 459.818L539.976 506.099C540.354 506.241 540.67 506.511 540.869 506.862C541.068 507.213 541.137 507.623 541.066 508.02C540.994 508.417 540.785 508.776 540.476 509.035C540.166 509.294 539.774 509.437 539.371 509.437Z" fill="#292A2E"/>
<path d="M530.195 532.272C529.989 532.271 529.786 532.234 529.593 532.162L405.721 485.88C405.302 485.713 404.965 485.389 404.782 484.977C404.6 484.565 404.586 484.097 404.744 483.675C404.902 483.253 405.219 482.909 405.627 482.718C406.035 482.526 406.502 482.502 406.927 482.651L530.8 528.932C531.179 529.073 531.496 529.343 531.696 529.695C531.896 530.046 531.966 530.456 531.895 530.854C531.823 531.252 531.613 531.612 531.303 531.871C530.993 532.13 530.601 532.272 530.197 532.272H530.195Z" fill="#292A2E"/>
<path d="M521.589 555.203C521.383 555.203 521.179 555.166 520.986 555.094L397.115 508.813C396.898 508.737 396.699 508.619 396.528 508.465C396.358 508.312 396.22 508.125 396.122 507.918C396.025 507.71 395.97 507.485 395.961 507.255C395.951 507.026 395.988 506.797 396.068 506.582C396.149 506.367 396.271 506.17 396.429 506.003C396.586 505.836 396.775 505.702 396.985 505.609C397.195 505.516 397.421 505.466 397.651 505.462C397.88 505.457 398.109 505.499 398.322 505.584L522.195 551.865C522.572 552.007 522.888 552.277 523.087 552.628C523.286 552.979 523.356 553.388 523.284 553.786C523.212 554.183 523.004 554.542 522.694 554.801C522.385 555.06 521.995 555.202 521.591 555.203H521.589Z" fill="#292A2E"/>
<path d="M468.291 511.018L466.395 521.863C465.983 524.221 464.652 526.319 462.694 527.695C460.736 529.071 458.311 529.613 455.953 529.201L347.794 510.329C346.627 510.125 345.43 510.153 344.274 510.412C343.117 510.67 342.023 511.154 341.053 511.836C340.084 512.517 339.258 513.383 338.623 514.384C337.988 515.385 337.556 516.501 337.353 517.668L312.092 662.471C311.681 664.828 312.223 667.253 313.599 669.211C314.975 671.169 317.073 672.5 319.43 672.912L529.495 709.553C531.853 709.964 534.277 709.422 536.235 708.046C538.193 706.669 539.525 704.572 539.936 702.214L546.224 666.169L566.741 548.522L570.19 528.787C570.393 527.62 570.365 526.424 570.107 525.267C569.848 524.11 569.364 523.016 568.683 522.046C568.001 521.077 567.135 520.251 566.134 519.616C565.134 518.981 564.018 518.55 562.85 518.346L478.729 503.672C477.561 503.469 476.365 503.497 475.208 503.757C474.052 504.016 472.958 504.501 471.988 505.183C471.019 505.865 470.194 506.732 469.559 507.733C468.925 508.734 468.494 509.851 468.291 511.018Z" fill="white"/>
<path d="M531.05 711.412C530.43 711.412 529.811 711.358 529.2 711.252L319.139 674.605C316.333 674.111 313.836 672.525 312.198 670.194C310.56 667.862 309.913 664.976 310.399 662.169L335.66 517.367C336.15 514.558 337.735 512.06 340.068 510.421C342.4 508.781 345.288 508.136 348.096 508.625L456.258 527.494C457.203 527.66 458.171 527.638 459.107 527.429C460.043 527.22 460.928 526.829 461.713 526.277C462.497 525.726 463.166 525.026 463.679 524.216C464.193 523.406 464.542 522.503 464.706 521.558L466.603 510.715C466.845 509.324 467.359 507.995 468.115 506.803C468.871 505.611 469.854 504.579 471.009 503.767C472.164 502.956 473.467 502.379 474.845 502.071C476.222 501.763 477.647 501.729 479.038 501.972L563.158 516.648C565.967 517.138 568.465 518.724 570.104 521.056C571.744 523.388 572.389 526.276 571.9 529.084L541.636 702.51C541.198 705.001 539.896 707.258 537.961 708.885C536.025 710.513 533.579 711.407 531.05 711.412ZM346.222 511.911C344.506 511.916 342.846 512.524 341.534 513.63C340.222 514.736 339.342 516.269 339.048 517.96L313.794 662.762C313.462 664.669 313.901 666.63 315.014 668.214C316.126 669.798 317.822 670.875 319.729 671.21L529.795 707.855C531.702 708.187 533.663 707.748 535.247 706.635C536.831 705.522 537.909 703.826 538.243 701.919L568.496 528.493C568.828 526.585 568.39 524.625 567.277 523.04C566.165 521.456 564.469 520.379 562.562 520.044L478.441 505.368C477.496 505.203 476.529 505.225 475.593 505.434C474.657 505.643 473.771 506.035 472.987 506.586C472.202 507.137 471.534 507.838 471.02 508.647C470.506 509.457 470.157 510.36 469.993 511.305L468.096 522.148C467.854 523.538 467.34 524.868 466.584 526.06C465.827 527.252 464.844 528.283 463.689 529.095C462.534 529.907 461.231 530.484 459.853 530.792C458.475 531.1 457.051 531.133 455.66 530.891L347.496 512.02C347.077 511.947 346.652 511.911 346.227 511.911H346.222Z" fill="#292A2E"/>
<path d="M546.898 599.619C547.159 598.692 547.717 597.876 548.485 597.295C549.253 596.714 550.19 596.401 551.153 596.401C551.141 596.324 551.056 596.146 551.191 596.132L547.875 594.522C546.888 594.069 546.098 593.274 545.651 592.284C545.205 591.294 545.132 590.176 545.446 589.136C545.79 588.119 546.499 587.267 547.435 586.743C548.372 586.219 549.469 586.062 550.515 586.301C550.501 586.26 550.515 586.215 550.515 586.172L549.153 585.51C548.225 585.079 547.474 584.341 547.027 583.42C546.581 582.499 546.466 581.452 546.703 580.457C546.864 579.835 547.161 579.257 547.573 578.765C547.984 578.272 548.5 577.877 549.083 577.608C549.666 577.339 550.301 577.203 550.943 577.209C551.585 577.215 552.217 577.364 552.794 577.644L555.939 579.17C555.939 579.153 555.939 579.134 555.939 579.117C555.939 579.1 555.977 579.089 555.991 579.069C555.224 578.456 554.688 577.601 554.471 576.643C554.254 575.686 554.369 574.683 554.798 573.8C555.755 571.446 558.881 571.358 560.913 572.344L567.076 575.951C568.026 576.508 568.825 577.292 569.4 578.232C569.975 579.173 570.308 580.241 570.37 581.341C570.92 590.86 571.762 615.76 565.272 612.608L549.298 604.85C548.374 604.368 547.636 603.592 547.202 602.645C546.767 601.698 546.66 600.633 546.898 599.619Z" fill="#E98862"/>
<path d="M368.324 639.984C368.256 638.925 367.861 637.913 367.193 637.088C366.525 636.263 365.618 635.665 364.596 635.377C364.642 635.295 364.66 635.201 364.648 635.108C364.628 635.031 364.588 634.96 364.532 634.904C364.476 634.847 364.406 634.806 364.329 634.784L368.596 633.838C369.859 633.586 370.988 632.886 371.775 631.866C372.562 630.846 372.953 629.577 372.876 628.291C372.757 627.025 372.172 625.849 371.236 624.989C370.3 624.129 369.078 623.647 367.807 623.636C367.834 623.593 367.822 623.536 367.836 623.486L369.589 623.096C370.779 622.854 371.848 622.209 372.616 621.269C373.384 620.329 373.803 619.153 373.803 617.939C373.787 617.178 373.603 616.43 373.264 615.749C372.924 615.068 372.437 614.471 371.839 614.001C371.241 613.53 370.545 613.199 369.803 613.029C369.061 612.86 368.291 612.858 367.548 613.022L363.501 613.92C363.501 613.898 363.519 613.881 363.514 613.858C363.508 613.836 363.479 613.815 363.469 613.789C364.522 613.293 365.375 612.453 365.888 611.408C366.401 610.363 366.544 609.174 366.293 608.038C365.834 605.06 362.253 604.1 359.638 604.681L336.026 609.491L341.627 605.396C342.735 604.621 343.507 603.454 343.787 602.131C344.066 600.808 343.833 599.428 343.134 598.27C342.753 597.685 342.257 597.184 341.676 596.797C341.095 596.411 340.441 596.146 339.754 596.021C339.067 595.895 338.362 595.91 337.682 596.066C337.001 596.222 336.36 596.515 335.796 596.927L305.21 619.289C301.62 621.911 299.195 625.831 298.45 630.213C297.706 634.596 298.7 639.096 301.222 642.757C304.145 647.003 308.269 650.28 313.066 652.167C317.864 654.054 323.115 654.466 328.148 653.35L364.11 645.367C365.317 645.077 366.39 644.387 367.155 643.41C367.92 642.432 368.332 641.225 368.324 639.984Z" fill="#E98862"/>
<g opacity="0.25">
<path d="M340.139 618.651C340.167 618.772 340.241 618.877 340.345 618.944C340.449 619.011 340.575 619.035 340.696 619.01L363.145 614.405C363.262 614.374 363.363 614.299 363.427 614.196C363.49 614.094 363.513 613.97 363.488 613.851C363.464 613.733 363.395 613.628 363.296 613.558C363.197 613.489 363.075 613.46 362.955 613.477L340.507 618.081C340.446 618.093 340.388 618.117 340.336 618.152C340.284 618.186 340.24 618.231 340.206 618.283C340.171 618.335 340.148 618.393 340.136 618.454C340.124 618.516 340.125 618.578 340.138 618.639L340.139 618.651Z" fill="#0C0C0C"/>
</g>
<g opacity="0.25">
<path d="M341.898 628.605C341.926 628.726 342 628.831 342.104 628.898C342.209 628.965 342.335 628.989 342.457 628.964L367.508 623.826C367.569 623.813 367.627 623.789 367.679 623.754C367.73 623.719 367.775 623.675 367.809 623.623C367.843 623.571 367.867 623.513 367.879 623.452C367.89 623.391 367.89 623.328 367.877 623.267C367.848 623.146 367.774 623.04 367.67 622.971C367.566 622.903 367.44 622.877 367.317 622.898L342.265 628.034C342.204 628.047 342.146 628.071 342.095 628.106C342.043 628.141 341.999 628.186 341.965 628.238C341.93 628.29 341.907 628.348 341.895 628.409C341.883 628.471 341.884 628.534 341.896 628.595L341.898 628.605Z" fill="#0C0C0C"/>
</g>
<g opacity="0.25">
<path d="M343.737 639.401C343.765 639.522 343.838 639.628 343.942 639.695C344.047 639.762 344.173 639.785 344.294 639.76L364.279 635.662C364.34 635.649 364.398 635.625 364.449 635.59C364.501 635.556 364.545 635.511 364.579 635.459C364.614 635.407 364.637 635.349 364.649 635.288C364.661 635.227 364.66 635.164 364.648 635.103C364.622 634.98 364.549 634.872 364.444 634.803C364.339 634.733 364.211 634.708 364.087 634.733L344.105 638.831C344.044 638.843 343.986 638.868 343.934 638.903C343.882 638.938 343.838 638.982 343.804 639.034C343.77 639.087 343.746 639.145 343.734 639.206C343.723 639.267 343.723 639.33 343.736 639.391L343.737 639.401Z" fill="#0C0C0C"/>
</g>
<path d="M325.924 667.571L130.806 702.833C124.717 703.495 118.558 702.738 112.811 700.62C107.065 698.502 101.887 695.081 97.6842 690.626C93.4816 686.171 90.3684 680.803 88.5889 674.943C86.8095 669.082 86.4122 662.889 87.4281 656.85L114.744 494.487C115.607 489.354 117.473 484.441 120.236 480.029C122.998 475.617 126.602 471.792 130.842 468.773C135.083 465.754 139.876 463.6 144.949 462.433C150.022 461.267 155.275 461.111 160.408 461.974C165.542 462.838 170.455 464.704 174.867 467.466C179.279 470.228 183.103 473.833 186.122 478.073C189.142 482.313 191.296 487.107 192.463 492.18C193.629 497.253 193.785 502.506 192.922 507.639L174.301 619.408L317.351 601.444L325.924 667.571Z" fill="#004D19"/>
<path d="M130.804 703.553C130.624 703.552 130.451 703.484 130.319 703.362C130.187 703.24 130.105 703.073 130.09 702.894C130.074 702.715 130.126 702.537 130.234 702.394C130.343 702.251 130.501 702.153 130.678 702.121L325.12 666.983L316.723 602.25L174.385 620.126C174.273 620.14 174.16 620.128 174.054 620.09C173.948 620.053 173.852 619.991 173.774 619.91C173.696 619.829 173.638 619.731 173.605 619.623C173.572 619.516 173.565 619.402 173.583 619.291L185.425 547.856C185.439 547.762 185.472 547.672 185.522 547.591C185.572 547.51 185.637 547.44 185.714 547.385C185.792 547.33 185.879 547.29 185.972 547.27C186.065 547.249 186.16 547.247 186.254 547.263C186.443 547.295 186.611 547.399 186.723 547.555C186.834 547.71 186.88 547.904 186.849 548.093L175.173 618.572L317.263 600.727C317.452 600.705 317.642 600.758 317.793 600.875C317.944 600.992 318.042 601.163 318.068 601.351L326.647 667.477C326.671 667.661 326.623 667.847 326.514 667.997C326.405 668.146 326.242 668.248 326.06 668.281L130.935 703.543C130.892 703.55 130.848 703.553 130.804 703.553Z" fill="#0C0C0C"/>
<path d="M174.186 618.698L161.635 620.707L161.864 622.134L174.414 620.125L174.186 618.698Z" fill="#0C0C0C"/>
<path d="M1401.77 1089.93H1307.15V1086.48H1401.77C1425.05 1086.46 1447.38 1077.19 1463.85 1060.73C1480.32 1044.26 1489.58 1021.93 1489.6 998.642V391.159H1493.05V998.642C1493.03 1022.84 1483.4 1046.05 1466.28 1063.16C1449.17 1080.27 1425.97 1089.9 1401.77 1089.93Z" fill="#292A2E"/>
<path d="M1491.33 509.625C1497.45 509.625 1502.41 504.666 1502.41 498.548C1502.41 492.43 1497.45 487.47 1491.33 487.47C1485.21 487.47 1480.25 492.43 1480.25 498.548C1480.25 504.666 1485.21 509.625 1491.33 509.625Z" fill="white"/>
<path d="M1491.33 511.349C1488.8 511.349 1486.32 510.598 1484.21 509.192C1482.11 507.785 1480.47 505.785 1479.5 503.445C1478.53 501.106 1478.28 498.531 1478.77 496.047C1479.27 493.564 1480.48 491.282 1482.28 489.492C1484.07 487.701 1486.35 486.482 1488.83 485.988C1491.32 485.494 1493.89 485.748 1496.23 486.718C1498.57 487.687 1500.57 489.328 1501.97 491.434C1503.38 493.54 1504.13 496.015 1504.13 498.548C1504.13 501.942 1502.78 505.196 1500.38 507.596C1497.98 509.996 1494.72 511.346 1491.33 511.349ZM1491.33 489.192C1489.48 489.192 1487.67 489.741 1486.13 490.769C1484.59 491.797 1483.39 493.258 1482.69 494.968C1481.98 496.677 1481.79 498.558 1482.15 500.373C1482.51 502.187 1483.4 503.854 1484.71 505.163C1486.02 506.471 1487.69 507.362 1489.5 507.723C1491.32 508.084 1493.2 507.899 1494.91 507.191C1496.62 506.483 1498.08 505.284 1499.11 503.745C1500.13 502.207 1500.68 500.398 1500.68 498.548C1500.68 496.067 1499.69 493.689 1497.94 491.936C1496.19 490.182 1493.81 489.195 1491.33 489.192Z" fill="#292A2E"/>
<path d="M1491.33 665.536C1497.45 665.536 1502.41 660.577 1502.41 654.459C1502.41 648.341 1497.45 643.381 1491.33 643.381C1485.21 643.381 1480.25 648.341 1480.25 654.459C1480.25 660.577 1485.21 665.536 1491.33 665.536Z" fill="#292A2E"/>
<path d="M1491.33 667.262C1488.8 667.262 1486.32 666.511 1484.22 665.104C1482.11 663.697 1480.47 661.698 1479.5 659.358C1478.53 657.019 1478.28 654.444 1478.77 651.961C1479.26 649.477 1480.48 647.196 1482.27 645.405C1484.07 643.614 1486.35 642.395 1488.83 641.901C1491.31 641.407 1493.89 641.661 1496.23 642.63C1498.57 643.599 1500.57 645.24 1501.97 647.345C1503.38 649.451 1504.13 651.926 1504.13 654.458C1504.13 657.853 1502.78 661.108 1500.38 663.508C1497.98 665.908 1494.72 667.258 1491.33 667.262ZM1491.33 645.105C1489.48 645.105 1487.67 645.654 1486.13 646.682C1484.59 647.71 1483.39 649.171 1482.69 650.881C1481.98 652.59 1481.79 654.471 1482.15 656.286C1482.51 658.101 1483.41 659.768 1484.71 661.076C1486.02 662.384 1487.69 663.275 1489.5 663.636C1491.32 663.997 1493.2 663.811 1494.91 663.103C1496.62 662.394 1498.08 661.195 1499.11 659.656C1500.14 658.118 1500.68 656.309 1500.68 654.458C1500.68 651.978 1499.69 649.601 1497.94 647.848C1496.19 646.094 1493.81 645.108 1491.33 645.105Z" fill="white"/>
<path d="M1491.33 821.447C1497.45 821.447 1502.41 816.487 1502.41 810.369C1502.41 804.251 1497.45 799.292 1491.33 799.292C1485.21 799.292 1480.25 804.251 1480.25 810.369C1480.25 816.487 1485.21 821.447 1491.33 821.447Z" fill="white"/>
<path d="M1491.33 823.173C1488.8 823.173 1486.32 822.422 1484.22 821.015C1482.11 819.608 1480.47 817.608 1479.5 815.269C1478.53 812.929 1478.28 810.355 1478.77 807.871C1479.26 805.388 1480.48 803.106 1482.27 801.316C1484.07 799.525 1486.35 798.306 1488.83 797.812C1491.31 797.318 1493.89 797.571 1496.23 798.54C1498.57 799.509 1500.57 801.15 1501.97 803.256C1503.38 805.361 1504.13 807.837 1504.13 810.369C1504.13 813.764 1502.78 817.018 1500.38 819.419C1497.98 821.819 1494.72 823.169 1491.33 823.173ZM1491.33 801.016C1489.48 801.016 1487.67 801.564 1486.13 802.592C1484.59 803.62 1483.39 805.082 1482.69 806.791C1481.98 808.501 1481.79 810.382 1482.15 812.197C1482.51 814.011 1483.41 815.678 1484.71 816.987C1486.02 818.295 1487.69 819.186 1489.5 819.547C1491.32 819.907 1493.2 819.722 1494.91 819.013C1496.62 818.305 1498.08 817.106 1499.11 815.567C1500.14 814.028 1500.68 812.22 1500.68 810.369C1500.68 807.89 1499.69 805.513 1497.94 803.76C1496.19 802.007 1493.81 801.021 1491.33 801.019V801.016Z" fill="#292A2E"/>
<path d="M1491.33 977.359C1497.45 977.359 1502.41 972.4 1502.41 966.282C1502.41 960.164 1497.45 955.204 1491.33 955.204C1485.21 955.204 1480.25 960.164 1480.25 966.282C1480.25 972.4 1485.21 977.359 1491.33 977.359Z" fill="white"/>
<path d="M1491.33 979.083C1488.8 979.083 1486.32 978.333 1484.22 976.926C1482.11 975.519 1480.47 973.519 1479.5 971.18C1478.53 968.84 1478.28 966.266 1478.77 963.782C1479.26 961.298 1480.48 959.017 1482.27 957.227C1484.07 955.436 1486.35 954.216 1488.83 953.722C1491.31 953.228 1493.89 953.482 1496.23 954.451C1498.57 955.42 1500.57 957.061 1501.97 959.167C1503.38 961.272 1504.13 963.748 1504.13 966.28C1504.13 969.675 1502.78 972.929 1500.38 975.329C1497.98 977.73 1494.72 979.08 1491.33 979.083ZM1491.33 956.926C1489.48 956.926 1487.67 957.475 1486.13 958.503C1484.59 959.531 1483.39 960.992 1482.69 962.702C1481.98 964.412 1481.79 966.293 1482.15 968.107C1482.51 969.922 1483.41 971.589 1484.71 972.897C1486.02 974.206 1487.69 975.097 1489.5 975.457C1491.32 975.818 1493.2 975.633 1494.91 974.924C1496.62 974.216 1498.08 973.017 1499.11 971.478C1500.14 969.939 1500.68 968.13 1500.68 966.28C1500.68 963.8 1499.69 961.422 1497.94 959.669C1496.19 957.916 1493.81 956.929 1491.33 956.926Z" fill="#292A2E"/>
<path d="M1406.68 1099.69C1412.8 1099.69 1417.76 1094.73 1417.76 1088.61C1417.76 1082.49 1412.8 1077.53 1406.68 1077.53C1400.56 1077.53 1395.6 1082.49 1395.6 1088.61C1395.6 1094.73 1400.56 1099.69 1406.68 1099.69Z" fill="#292A2E"/>
<path d="M1406.68 1101.41C1404.15 1101.41 1401.68 1100.66 1399.57 1099.25C1397.47 1097.85 1395.83 1095.85 1394.86 1093.51C1393.89 1091.17 1393.64 1088.6 1394.13 1086.11C1394.62 1083.63 1395.84 1081.35 1397.63 1079.56C1399.42 1077.77 1401.7 1076.55 1404.19 1076.05C1406.67 1075.56 1409.24 1075.81 1411.58 1076.78C1413.92 1077.75 1415.92 1079.39 1417.33 1081.49C1418.73 1083.6 1419.49 1086.07 1419.49 1088.61C1419.48 1092 1418.13 1095.26 1415.73 1097.66C1413.33 1100.06 1410.08 1101.41 1406.68 1101.41ZM1406.68 1079.26C1404.83 1079.26 1403.02 1079.81 1401.49 1080.83C1399.95 1081.86 1398.75 1083.32 1398.04 1085.03C1397.34 1086.74 1397.15 1088.62 1397.51 1090.44C1397.87 1092.25 1398.76 1093.92 1400.07 1095.23C1401.38 1096.53 1403.05 1097.42 1404.86 1097.78C1406.68 1098.14 1408.56 1097.96 1410.27 1097.25C1411.98 1096.54 1413.44 1095.34 1414.46 1093.8C1415.49 1092.26 1416.04 1090.46 1416.04 1088.61C1416.04 1086.13 1415.05 1083.75 1413.29 1082C1411.54 1080.24 1409.16 1079.26 1406.68 1079.26Z" fill="white"/>
<path d="M1.72414 1380.45H1601.97C1602.43 1380.45 1602.86 1380.27 1603.19 1379.95C1603.51 1379.63 1603.69 1379.19 1603.69 1378.73C1603.69 1378.27 1603.51 1377.83 1603.19 1377.51C1602.86 1377.19 1602.43 1377.01 1601.97 1377.01H1.72414C1.26687 1377.01 0.828329 1377.19 0.50499 1377.51C0.18165 1377.83 0 1378.27 0 1378.73C0 1379.19 0.18165 1379.63 0.50499 1379.95C0.828329 1380.27 1.26687 1380.45 1.72414 1380.45Z" fill="#262626"/>
</svg>
